<svg width="16" height="16" viewBox="0 0 16 16" fill="none" xmlns="http://www.w3.org/2000/svg">
<g id="Titles">
<g id="clipboard-text">
<path fill="#646464" id="Vector" d="M9.56667 1.33334H6.43334C5.74001 1.33334 5.17334 1.89334 5.17334 2.58667V3.21334C5.17334 3.90667 5.73334 4.46667 6.42667 4.46667H9.56667C10.26 4.46667 10.82 3.90667 10.82 3.21334V2.58667C10.8267 1.89334 10.26 1.33334 9.56667 1.33334Z"/>
<path fill="#646464" id="Vector_2" d="M11.4934 3.21334C11.4934 4.27334 10.6267 5.14 9.56669 5.14H6.43336C5.37336 5.14 4.50669 4.27334 4.50669 3.21334C4.50669 2.84 4.10669 2.60667 3.77336 2.78C2.83336 3.28 2.19336 4.27333 2.19336 5.41333V11.6867C2.19336 13.3267 3.53336 14.6667 5.17336 14.6667H10.8267C12.4667 14.6667 13.8067 13.3267 13.8067 11.6867V5.41333C13.8067 4.27333 13.1667 3.28 12.2267 2.78C11.8934 2.60667 11.4934 2.84 11.4934 3.21334ZM8.25336 11.3H5.33336C5.06003 11.3 4.83336 11.0733 4.83336 10.8C4.83336 10.5267 5.06003 10.3 5.33336 10.3H8.25336C8.52669 10.3 8.75336 10.5267 8.75336 10.8C8.75336 11.0733 8.52669 11.3 8.25336 11.3ZM10 8.63334H5.33336C5.06003 8.63334 4.83336 8.40667 4.83336 8.13334C4.83336 7.86 5.06003 7.63334 5.33336 7.63334H10C10.2734 7.63334 10.5 7.86 10.5 8.13334C10.5 8.40667 10.2734 8.63334 10 8.63334Z"/>
</g>
</g>
</svg>
