<svg width="16" height="16" viewBox="0 0 16 16" fill="none" xmlns="http://www.w3.org/2000/svg">
<g id="Objects / sell">
<path id="Vector" d="M9.13222 13.8192C8.96262 13.9884 8.75826 14.073 8.51914 14.073C8.28002 14.073 8.07584 13.9884 7.9066 13.8192L2.18994 8.10255C2.10864 8.01789 2.04494 7.92082 1.99884 7.81133C1.95274 7.70184 1.92969 7.59251 1.92969 7.48333V2.8C1.92969 2.56402 2.01514 2.36059 2.18604 2.1897C2.35693 2.0188 2.56036 1.93335 2.79634 1.93335H7.47967C7.58914 1.93335 7.69447 1.95187 7.79567 1.98892C7.89686 2.02595 7.99214 2.08823 8.08152 2.17575L13.8027 7.89105C13.9762 8.06455 14.0641 8.27031 14.0662 8.50833C14.0683 8.74636 13.9848 8.94998 13.8156 9.11922L9.13222 13.8192ZM8.51654 13.2L13.2028 8.51667L7.48254 2.8H2.79634V7.48333L8.51654 13.2ZM4.39559 5.23332C4.62685 5.23332 4.82368 5.15237 4.98607 4.99048C5.14846 4.82859 5.22965 4.63202 5.22965 4.40075C5.22965 4.16948 5.14871 3.97266 4.98682 3.81027C4.82493 3.64788 4.62835 3.56668 4.39709 3.56668C4.16582 3.56668 3.96899 3.64763 3.8066 3.80952C3.64422 3.97141 3.56302 4.16798 3.56302 4.39925C3.56302 4.63052 3.64397 4.82734 3.80585 4.98973C3.96774 5.15212 4.16432 5.23332 4.39559 5.23332Z" fill="#646464"/>
</g>
</svg>
