<svg width="16" height="16" viewBox="0 0 16 16" fill="none" xmlns="http://www.w3.org/2000/svg">
<rect width="16" height="16" fill="white" fill-opacity="0.01"/>
<path fill-rule="evenodd" clip-rule="evenodd" d="M12.6438 1.22288C12.4355 1.01459 12.0978 1.01459 11.8896 1.22288L3.96216 9.15025C3.8662 9.24621 3.78944 9.35958 3.73598 9.48432L2.17644 13.1232C2.09053 13.3237 2.13532 13.5563 2.28953 13.7105C2.44374 13.8646 2.67629 13.9094 2.87674 13.8236L6.51567 12.264C6.6404 12.2106 6.75378 12.1338 6.84974 12.0379L14.7771 4.11045C14.9854 3.90217 14.9854 3.56449 14.7771 3.35621L12.6438 1.22288ZM4.71641 9.9045L12.2666 2.35425L13.6457 3.73333L6.09549 11.2836L4.50049 11.9671L4.03283 11.4995L4.71641 9.9045Z" fill="#646464"/>
</svg>
