<svg width="500" height="500" viewBox="0 0 500 500" fill="none" xmlns="http://www.w3.org/2000/svg">
<path d="M249.046 486.053C379.168 486.053 484.654 425.151 484.654 350.024C484.654 274.897 379.168 213.995 249.046 213.995C118.923 213.995 13.4375 274.897 13.4375 350.024C13.4375 425.151 118.923 486.053 249.046 486.053Z" fill="#F0F0F0"/>
<path d="M384.361 397.224C368.911 388.304 368.911 373.842 384.361 364.922C399.811 356.002 424.859 356.002 440.309 364.922C455.759 373.842 455.759 388.304 440.309 397.224C424.859 406.144 399.811 406.144 384.361 397.224Z" fill="#E0E0E0"/>
<path d="M70.1161 398.462L29.4761 374.998C27.1851 373.675 27.1851 371.53 29.4761 370.207L265.865 233.728C268.156 232.405 271.871 232.405 274.162 233.728L314.804 257.191C317.095 258.514 317.095 260.659 314.804 261.981L78.4131 398.462C76.1221 399.785 72.4071 399.785 70.1161 398.462Z" fill="#E0E0E0"/>
<path d="M216.203 356.644L251.14 336.443C254.741 334.364 256.542 331.639 256.542 328.914C256.542 326.189 256.557 324.054 256.557 324.054L220.308 303.614C218.387 302.505 216.83 299.808 216.83 297.59V254.515L155.807 289.777L155.805 332.851C155.805 335.069 157.362 337.766 159.283 338.875L190.119 356.643C197.322 360.803 209 360.802 216.203 356.644Z" fill="#FFC53D"/>
<g opacity="0.6">
<path d="M216.203 356.644L251.14 336.443C254.741 334.364 256.542 331.639 256.542 328.914C256.542 326.189 256.557 324.054 256.557 324.054L220.308 303.614C218.387 302.505 216.83 299.808 216.83 297.59V254.515L155.807 289.777L155.805 332.851C155.805 335.069 157.362 337.766 159.283 338.875L190.119 356.643C197.322 360.803 209 360.802 216.203 356.644Z" fill="black"/>
</g>
<path opacity="0.3" d="M170.455 340.48V345.319L159.271 338.874C157.363 337.77 155.797 335.079 155.797 332.85V289.78L167.423 283.073C167.664 286.025 167.925 289.077 168.166 292.049L160.014 296.768V330.421C160.014 332.65 161.56 335.34 163.488 336.445L170.455 340.48Z" fill="black"/>
<path d="M160.016 330.428C160.016 332.646 161.573 335.343 163.494 336.452L190.116 351.787C197.319 355.945 208.998 355.947 216.201 351.79L251.156 331.591C258.36 327.434 258.361 320.693 251.158 316.534L224.519 301.189C222.598 300.08 221.041 297.383 221.041 295.165L221.04 261.508L160.016 296.77V330.428Z" fill="#FFC53D"/>
<path opacity="0.3" d="M160.016 330.428C160.016 332.646 161.573 335.343 163.494 336.452L190.116 351.787C197.319 355.945 208.998 355.947 216.201 351.79L251.156 331.591C258.36 327.434 258.361 320.693 251.158 316.534L224.519 301.189C222.598 300.08 221.041 297.383 221.041 295.165L221.04 261.508L160.016 296.77V330.428Z" fill="black"/>
<path opacity="0.5" d="M231.595 305.283V305.278L224.511 301.188C222.59 300.079 221.033 297.382 221.033 295.164V261.507L160.008 296.769V330.428C160.008 332.646 161.565 335.343 163.486 336.452L170.447 340.471L231.595 305.283Z" fill="black"/>
<path d="M256.551 324.058C256.551 324.058 256.551 326.186 256.551 328.917C256.551 331.648 254.744 334.358 251.15 336.447L216.207 356.636C212.753 358.644 208.276 359.648 203.758 359.728V354.889C208.276 354.829 212.753 353.785 216.207 351.797L251.15 331.587C254.743 329.519 256.551 326.789 256.551 324.058Z" fill="#FFC53D"/>
<path opacity="0.5" d="M256.551 324.058C256.551 324.058 256.551 326.186 256.551 328.917C256.551 331.648 254.744 334.358 251.15 336.447L216.207 356.636C212.753 358.644 208.276 359.648 203.758 359.728V354.889C208.276 354.829 212.753 353.785 216.207 351.797L251.15 331.587C254.743 329.519 256.551 326.789 256.551 324.058Z" fill="black"/>
<path d="M62.0311 372.263C64.2831 373.563 68.0561 373.493 70.4571 372.107C100.458 354.786 276.457 253.175 306.454 235.857C308.855 234.471 310.8 231.1 310.8 228.328V37.414C310.8 34.642 308.974 31.34 306.722 30.04C304.47 28.74 300.698 28.809 298.297 30.196L62.3031 166.446C59.9021 167.832 57.9561 171.203 57.9561 173.976L57.9531 364.889C57.9531 367.661 59.7781 370.962 62.0311 372.263Z" fill="#FFC53D"/>
<path d="M70.4564 372.102L306.452 235.853C308.853 234.467 310.799 231.096 310.799 228.323V37.409C310.799 34.637 308.853 33.513 306.452 34.899L70.4594 171.149C68.0584 172.535 66.1124 175.906 66.1124 178.679L66.1094 369.592C66.1094 372.364 68.0564 373.488 70.4564 372.102Z" fill="#FFC53D"/>
<path opacity="0.5" d="M70.4564 372.102L306.452 235.853C308.853 234.467 310.799 231.096 310.799 228.323V37.409C310.799 34.637 308.853 33.513 306.452 34.899L70.4594 171.149C68.0584 172.535 66.1124 175.906 66.1124 178.679L66.1094 369.592C66.1094 372.364 68.0564 373.488 70.4564 372.102Z" fill="black"/>
<path d="M69.8191 377.064C67.4101 378.128 64.0771 378.088 62.0291 376.903C59.7801 375.598 57.9531 372.305 57.9531 369.514V352.131L66.1051 356.85V374.233C66.1051 376.763 67.7111 377.907 69.8191 377.064Z" fill="#FFC53D"/>
<path opacity="0.5" d="M69.8191 377.064C67.4101 378.128 64.0771 378.088 62.0291 376.903C59.7801 375.598 57.9531 372.305 57.9531 369.514V352.131L66.1051 356.85V374.233C66.1051 376.763 67.7111 377.907 69.8191 377.064Z" fill="black"/>
<path d="M66.1016 356.849L66.1086 374.226C66.1086 376.998 68.0556 378.122 70.4556 376.736L306.452 240.487C308.853 239.101 310.799 235.73 310.799 232.957V215.543L66.1016 356.849Z" fill="#FFC53D"/>
<path opacity="0.3" d="M66.1094 356.813V374.226C66.1094 376.998 68.0564 378.122 70.4564 376.736L306.452 240.487C308.853 239.101 310.799 235.73 310.799 232.957V215.543L66.1094 356.813Z" fill="black"/>
<path d="M74.2656 335.041L74.2676 181.386C74.2676 179.723 75.4356 177.7 76.8756 176.868L300.033 48.028C301.474 47.196 302.641 47.871 302.641 49.534L302.648 203.193C302.648 204.856 301.48 206.879 300.04 207.711L76.8746 336.547C75.4336 337.379 74.2656 336.704 74.2656 335.041Z" fill="#FFC53D"/>
<path d="M74.2656 335.041L74.2676 181.386C74.2676 179.723 75.4356 177.7 76.8756 176.868L300.033 48.028C301.474 47.196 302.641 47.871 302.641 49.534L302.648 203.193C302.648 204.856 301.48 206.879 300.04 207.711L76.8746 336.547C75.4336 337.379 74.2656 336.704 74.2656 335.041Z" fill="#263238"/>
<path d="M188.454 291.726C186.201 293.027 184.375 296.19 184.375 298.791C184.375 301.392 186.202 302.446 188.455 301.145C190.708 299.844 192.534 296.681 192.534 294.08C192.533 291.48 190.707 290.426 188.454 291.726Z" fill="#FFC53D"/>
<path opacity="0.7" d="M67.3901 174.378C66.6071 175.743 66.1251 177.289 66.1051 178.675V356.85L57.9531 352.131L57.9581 173.976C57.9581 172.591 58.4551 171.045 59.2381 169.68L67.3901 174.378Z" fill="black"/>
<path opacity="0.3" d="M310.757 36.694C310.449 34.453 308.639 33.641 306.45 34.895L70.4614 171.153C69.2684 171.842 68.1894 173.014 67.3874 174.381L59.2344 169.673C60.0264 168.326 61.1054 167.134 62.3084 166.445L298.297 30.197C300.703 28.809 304.465 28.737 306.727 30.043C308.783 31.225 310.479 34.093 310.757 36.694Z" fill="black"/>
<path d="M323.491 60.187C322.923 59.846 322.148 59.858 321.274 60.363L98.5861 188.949C96.9031 189.921 95.5391 192.281 95.5391 194.224L95.5411 346.943C95.5411 348.127 96.0481 349.173 96.8251 349.59C97.3231 349.858 99.9401 351.38 100.717 351.798C101.215 352.066 101.824 352.075 102.482 351.696L325.162 223.059C326.846 222.09 328.211 219.73 328.211 217.787V64.328C328.211 63.326 327.848 62.632 327.267 62.327C326.72 62.041 324.052 60.523 323.491 60.187Z" fill="#FFC53D"/>
<path d="M101.479 351.491C100.628 351.491 99.9375 350.441 99.9375 349.151V196.432C99.9375 194.682 101.218 192.464 102.734 191.588L325.418 63.002C325.814 62.773 326.198 62.653 326.529 62.653C327.271 62.653 327.715 63.279 327.715 64.328V217.788C327.715 219.538 326.434 221.754 324.917 222.626L102.236 351.263C101.974 351.414 101.719 351.491 101.479 351.491Z" fill="#FAFAFA"/>
<path d="M326.53 63.153C327.126 63.153 327.215 63.889 327.215 64.328V217.788C327.215 219.381 326.048 221.398 324.665 222.194L101.988 350.83C101.802 350.937 101.63 350.991 101.479 350.991C100.923 350.991 100.437 350.131 100.437 349.151V196.432C100.437 194.838 101.603 192.819 102.983 192.022L325.668 63.435C326.072 63.202 326.36 63.153 326.53 63.153ZM326.53 62.153C326.121 62.153 325.657 62.287 325.168 62.569L102.484 191.156C100.802 192.127 99.4375 194.49 99.4375 196.432V349.151C99.4375 350.687 100.29 351.991 101.48 351.991C101.795 351.991 102.135 351.9 102.487 351.697L325.167 223.06C326.851 222.091 328.216 219.731 328.216 217.788V64.328C328.216 62.95 327.529 62.153 326.53 62.153Z" fill="#E0E0E0"/>
<path d="M96.8231 349.589C97.1531 349.764 99.5221 351.115 100.56 351.706C99.8601 351.207 99.4911 350.35 99.4391 349.148V206.397L95.5391 204.115V346.944C95.5391 348.123 96.0471 349.177 96.8231 349.589Z" fill="#F0F0F0"/>
<path d="M328.214 64.305C328.202 62.381 326.844 61.602 325.169 62.569L102.484 191.156C100.802 192.127 99.4375 194.49 99.4375 196.432L99.4405 206.397L328.214 74.303V64.305Z" fill="#FFC53D"/>
<g opacity="0.4">
<path d="M325.167 62.568L102.486 191.154C101.652 191.643 100.886 192.467 100.34 193.415L96.4688 191.173C97.0148 190.234 97.7647 189.418 98.5877 188.948L321.277 60.362C322.149 59.854 322.925 59.846 323.491 60.182C324.037 60.517 326.567 61.955 327.209 62.299C326.671 62.041 325.953 62.118 325.167 62.568Z" fill="white"/>
</g>
<path opacity="0.15" d="M95.5391 204.125L95.5411 194.22C95.5411 193.233 95.9031 192.141 96.4681 191.173L100.348 193.405C99.7831 194.363 99.4381 195.446 99.4381 196.432V206.395L95.5391 204.125Z" fill="black"/>
<path d="M281.248 179.423L147.874 256.426C146.645 257.136 145.648 258.862 145.648 260.281V298.517C145.648 299.936 146.645 301.661 147.876 302.369L151.773 304.611C153.003 305.319 154.997 305.317 156.226 304.608L289.582 227.615C290.811 226.905 291.808 225.179 291.809 223.76L291.825 185.513C291.826 184.094 290.829 182.369 289.598 181.661L285.702 179.419C284.471 178.712 282.477 178.714 281.248 179.423Z" fill="#FFC53D"/>
<path opacity="0.5" d="M291.805 185.153C291.651 184.002 290.715 183.58 289.595 184.228L156.226 261.229C155.609 261.579 155.054 262.195 154.653 262.894L146.305 258.072C146.706 257.383 147.261 256.777 147.868 256.427L281.247 179.426C282.471 178.717 284.465 178.706 285.699 179.416L289.595 181.657C290.725 182.305 291.661 183.817 291.805 185.153Z" fill="white"/>
<path d="M155.846 304.787C154.612 305.311 152.885 305.25 151.775 304.612L147.879 302.371C146.645 301.662 145.648 299.935 145.648 298.516V260.283C145.648 259.563 145.905 258.772 146.306 258.073L154.654 262.895C154.243 263.594 153.996 264.375 153.996 265.085V303.328C153.995 304.602 154.797 305.188 155.846 304.787Z" fill="#263238"/>
<path d="M156.226 261.233L289.6 184.229C290.829 183.519 291.825 184.095 291.825 185.514L291.809 223.761C291.808 225.18 290.811 226.906 289.582 227.616L156.226 304.609C154.997 305.319 154 304.743 154 303.324V265.088C154.001 263.668 154.997 261.942 156.226 261.233Z" fill="#FFC53D"/>
<path d="M245.891 199.839L147.868 256.428C147.262 256.778 146.707 257.384 146.305 258.073L154.653 262.895C155.054 262.196 155.609 261.579 156.226 261.23L254.223 204.651L245.891 199.839Z" fill="#455A64"/>
<path d="M254.226 204.652L156.226 261.232C154.997 261.942 154 263.668 154 265.087V303.323C154 304.742 154.996 305.318 156.226 304.608L254.226 248.028V204.652Z" fill="#37474F"/>
<path d="M178.826 256.575L229.393 227.379C231.49 226.168 233.189 227.028 233.189 229.3C233.189 231.571 231.489 234.394 229.392 235.605L178.829 264.798C176.732 266.009 175.031 265.149 175.031 262.879C175.03 260.608 176.729 257.786 178.826 256.575Z" fill="#FFC53D"/>
<path d="M189.19 266.237C189.247 266.204 189.297 266.213 189.338 266.263C189.38 266.313 189.401 266.388 189.401 266.49V272.185C189.401 272.759 189.354 273.303 189.259 273.821C189.167 274.337 189.026 274.817 188.837 275.259C188.65 275.701 188.415 276.092 188.135 276.436C187.853 276.778 187.528 277.056 187.158 277.269C186.783 277.486 186.455 277.584 186.177 277.566C185.898 277.546 185.665 277.423 185.478 277.199C185.29 276.974 185.151 276.655 185.059 276.245C184.969 275.835 184.922 275.343 184.922 274.769V269.075C184.922 268.973 184.943 268.874 184.985 268.776C185.026 268.678 185.075 268.611 185.133 268.579L185.767 268.213C185.824 268.179 185.873 268.188 185.916 268.238C185.957 268.288 185.978 268.363 185.978 268.465V274.09C185.978 274.47 186.007 274.777 186.064 275.012C186.12 275.249 186.202 275.422 186.305 275.532C186.409 275.644 186.535 275.697 186.681 275.692C186.827 275.686 186.986 275.633 187.158 275.534C187.33 275.435 187.489 275.303 187.638 275.138C187.787 274.973 187.913 274.777 188.018 274.544C188.122 274.313 188.204 274.046 188.264 273.743C188.324 273.44 188.353 273.098 188.353 272.719V267.095C188.353 266.993 188.374 266.894 188.415 266.796C188.457 266.698 188.506 266.631 188.565 266.598L189.19 266.237Z" fill="#FAFAFA"/>
<path d="M193.11 271.625C193.11 271.525 193.092 271.451 193.055 271.407C193.019 271.363 192.955 271.34 192.864 271.337C192.773 271.334 192.651 271.348 192.501 271.38C192.349 271.412 192.157 271.449 191.923 271.492C191.693 271.532 191.504 271.524 191.353 271.474C191.201 271.422 191.081 271.329 190.99 271.197C190.899 271.064 190.835 270.892 190.798 270.675C190.762 270.46 190.744 270.214 190.744 269.937C190.744 269.659 190.78 269.365 190.853 269.053C190.926 268.743 191.031 268.444 191.169 268.156C191.308 267.868 191.475 267.602 191.673 267.358C191.871 267.115 192.098 266.919 192.353 266.772C192.608 266.625 192.836 266.543 193.037 266.531C193.238 266.516 193.408 266.552 193.549 266.637C193.689 266.723 193.798 266.852 193.876 267.025C193.954 267.198 193.998 267.391 194.009 267.607C194.014 267.706 193.994 267.806 193.95 267.905C193.906 268.004 193.855 268.071 193.797 268.103L193.196 268.45C193.119 268.495 193.059 268.504 193.02 268.476C192.981 268.448 192.939 268.414 192.892 268.376C192.845 268.34 192.783 268.318 192.704 268.312C192.627 268.306 192.509 268.348 192.353 268.438C192.196 268.528 192.059 268.649 191.939 268.801C191.819 268.954 191.758 269.137 191.758 269.35C191.758 269.451 191.773 269.528 191.802 269.582C191.83 269.634 191.884 269.666 191.965 269.674C192.046 269.684 192.159 269.676 192.302 269.654C192.445 269.632 192.63 269.596 192.86 269.548C193.323 269.456 193.65 269.542 193.84 269.807C194.03 270.072 194.126 270.484 194.126 271.038C194.126 271.317 194.087 271.609 194.009 271.918C193.931 272.227 193.817 272.528 193.669 272.823C193.52 273.117 193.339 273.389 193.122 273.639C192.906 273.889 192.662 274.092 192.392 274.247C192.115 274.407 191.873 274.489 191.661 274.495C191.45 274.501 191.271 274.454 191.127 274.352C190.98 274.252 190.869 274.108 190.791 273.921C190.713 273.735 190.671 273.533 190.665 273.314C190.66 273.215 190.68 273.115 190.724 273.016C190.768 272.917 190.818 272.85 190.876 272.816L191.478 272.469C191.556 272.425 191.614 272.423 191.654 272.465C191.692 272.508 191.737 272.555 191.786 272.611C191.835 272.666 191.904 272.7 191.993 272.714C192.081 272.727 192.214 272.683 192.392 272.58C192.47 272.535 192.551 272.479 192.634 272.412C192.717 272.346 192.795 272.271 192.865 272.189C192.934 272.107 192.993 272.017 193.041 271.921C193.086 271.826 193.11 271.727 193.11 271.625Z" fill="#FAFAFA"/>
<path d="M195.148 268.906C195.148 268.388 195.192 267.875 195.281 267.365C195.37 266.856 195.498 266.384 195.664 265.949C195.831 265.515 196.032 265.133 196.269 264.801C196.506 264.47 196.77 264.221 197.062 264.052C197.353 263.883 197.617 263.825 197.855 263.877C198.091 263.931 198.293 264.07 198.46 264.293C198.626 264.516 198.755 264.817 198.847 265.194C198.937 265.573 198.984 265.998 198.984 266.47V267.094C198.984 267.196 198.963 267.297 198.921 267.393C198.88 267.491 198.831 267.558 198.772 267.591L196.163 269.098C196.163 269.311 196.189 269.483 196.238 269.616C196.287 269.751 196.353 269.849 196.437 269.911C196.52 269.974 196.617 270.002 196.726 269.994C196.835 269.987 196.948 269.949 197.062 269.883C197.228 269.788 197.363 269.68 197.468 269.559C197.572 269.439 197.658 269.314 197.726 269.181C197.783 269.075 197.83 268.996 197.867 268.947C197.903 268.898 197.953 268.857 198.016 268.821L198.641 268.46C198.697 268.428 198.748 268.435 198.793 268.482C198.837 268.531 198.857 268.608 198.851 268.713C198.846 268.846 198.806 269.035 198.731 269.283C198.656 269.53 198.542 269.794 198.391 270.076C198.24 270.358 198.054 270.632 197.833 270.898C197.612 271.164 197.355 271.382 197.064 271.55C196.772 271.719 196.508 271.781 196.271 271.739C196.034 271.695 195.832 271.554 195.666 271.317C195.499 271.08 195.372 270.758 195.283 270.35C195.193 269.944 195.148 269.462 195.148 268.906ZM197.063 265.717C196.911 265.805 196.783 265.92 196.676 266.059C196.569 266.201 196.479 266.353 196.406 266.52C196.333 266.688 196.278 266.858 196.238 267.034C196.199 267.21 196.174 267.369 196.163 267.514L197.929 266.495C197.919 266.363 197.899 266.229 197.871 266.091C197.843 265.955 197.796 265.844 197.73 265.756C197.665 265.67 197.578 265.618 197.472 265.6C197.365 265.583 197.229 265.622 197.063 265.717Z" fill="#FAFAFA"/>
<path d="M202.126 262.934C201.814 263.115 201.589 263.368 201.45 263.692C201.312 264.018 201.243 264.458 201.243 265.013V268.624C201.243 268.725 201.222 268.826 201.181 268.923C201.139 269.021 201.09 269.088 201.031 269.12L200.439 269.463C200.382 269.495 200.332 269.487 200.29 269.437C200.248 269.388 200.227 269.312 200.227 269.21V262.738C200.227 262.637 200.248 262.536 200.29 262.439C200.331 262.341 200.381 262.275 200.439 262.241L201.031 261.9C201.089 261.866 201.138 261.875 201.181 261.925C201.222 261.974 201.243 262.05 201.243 262.152V262.472C201.378 262.171 201.523 261.917 201.677 261.707C201.83 261.498 202.031 261.322 202.282 261.177L202.633 260.974C202.69 260.942 202.739 260.95 202.782 261C202.823 261.049 202.844 261.126 202.844 261.227V262.144C202.844 262.246 202.823 262.346 202.782 262.444C202.74 262.542 202.691 262.609 202.633 262.641L202.126 262.934Z" fill="#FAFAFA"/>
<path d="M209.586 262.447C209.643 262.414 209.692 262.423 209.735 262.473C209.776 262.522 209.797 262.599 209.797 262.7V263.687C209.797 263.788 209.776 263.889 209.735 263.986C209.693 264.084 209.644 264.15 209.586 264.183L206.164 266.159C206.106 266.192 206.058 266.183 206.015 266.133C205.974 266.084 205.953 266.008 205.953 265.906V256.934C205.953 256.833 205.974 256.733 206.015 256.635C206.057 256.537 206.105 256.471 206.164 256.438L206.797 256.073C206.854 256.04 206.904 256.049 206.946 256.099C206.988 256.149 207.009 256.223 207.009 256.326V263.936L209.586 262.447Z" fill="#FAFAFA"/>
<path d="M212.656 255.05C212.943 254.884 213.202 254.813 213.434 254.837C213.666 254.86 213.867 254.962 214.035 255.142C214.205 255.322 214.34 255.567 214.441 255.88C214.543 256.191 214.603 256.556 214.618 256.972C214.623 257.052 214.626 257.157 214.626 257.287C214.626 257.415 214.626 257.546 214.626 257.674C214.626 257.805 214.626 257.931 214.626 258.058C214.626 258.182 214.623 258.288 214.618 258.374C214.597 258.812 214.538 259.244 214.438 259.672C214.339 260.1 214.205 260.499 214.035 260.87C213.866 261.24 213.665 261.572 213.434 261.863C213.202 262.154 212.943 262.382 212.656 262.548C212.37 262.713 212.111 262.785 211.879 262.761C211.648 262.737 211.447 262.639 211.279 262.462C211.109 262.287 210.975 262.042 210.876 261.73C210.777 261.417 210.716 261.052 210.695 260.639C210.69 260.559 210.687 260.456 210.684 260.334C210.682 260.209 210.68 260.085 210.68 259.955C210.68 259.824 210.682 259.694 210.684 259.563C210.687 259.432 210.69 259.324 210.695 259.238C210.711 258.802 210.77 258.371 210.871 257.941C210.973 257.512 211.109 257.11 211.279 256.734C211.448 256.358 211.648 256.026 211.879 255.735C212.111 255.443 212.37 255.216 212.656 255.05ZM213.603 257.629C213.587 257.351 213.549 257.135 213.488 256.979C213.428 256.824 213.355 256.716 213.265 256.656C213.177 256.596 213.081 256.576 212.977 256.594C212.873 256.612 212.765 256.653 212.656 256.716C212.548 256.778 212.441 256.862 212.337 256.964C212.233 257.065 212.136 257.198 212.048 257.36C211.96 257.523 211.884 257.716 211.825 257.94C211.766 258.164 211.728 258.425 211.712 258.72C211.707 258.798 211.703 258.893 211.701 259.005C211.698 259.117 211.696 259.234 211.696 259.354C211.696 259.474 211.698 259.591 211.701 259.705C211.703 259.82 211.707 259.908 211.712 259.97C211.728 260.247 211.766 260.464 211.825 260.618C211.884 260.774 211.96 260.881 212.048 260.941C212.136 261.001 212.233 261.022 212.337 261.003C212.441 260.985 212.548 260.943 212.656 260.881C212.765 260.818 212.873 260.736 212.977 260.634C213.081 260.532 213.177 260.401 213.265 260.238C213.354 260.075 213.428 259.882 213.488 259.658C213.548 259.433 213.586 259.173 213.603 258.877C213.607 258.811 213.61 258.718 213.61 258.602C213.61 258.486 213.61 258.367 213.61 258.247C213.61 258.129 213.61 258.012 213.61 257.902C213.61 257.79 213.607 257.7 213.603 257.629Z" fill="#FAFAFA"/>
<path d="M217.68 260.898C217.791 260.836 217.902 260.74 218.017 260.614C218.131 260.488 218.235 260.334 218.328 260.149C218.422 259.966 218.499 259.757 218.559 259.523C218.619 259.289 218.649 259.038 218.649 258.769V258.255C218.607 258.362 218.553 258.484 218.484 258.62C218.417 258.757 218.334 258.895 218.238 259.034C218.142 259.173 218.029 259.307 217.903 259.436C217.775 259.567 217.63 259.677 217.469 259.769C217.208 259.92 216.972 259.966 216.762 259.908C216.55 259.85 216.371 259.711 216.223 259.496C216.074 259.281 215.957 259.002 215.872 258.658C215.786 258.314 215.737 257.932 215.726 257.512C215.721 257.375 215.719 257.216 215.719 257.03C215.719 256.845 215.721 256.683 215.726 256.54C215.737 256.108 215.785 255.671 215.872 255.227C215.957 254.784 216.075 254.37 216.223 253.983C216.372 253.596 216.55 253.251 216.762 252.949C216.972 252.647 217.208 252.422 217.469 252.271C217.63 252.178 217.775 252.12 217.903 252.103C218.029 252.085 218.142 252.09 218.238 252.117C218.334 252.144 218.417 252.188 218.484 252.247C218.552 252.305 218.606 252.364 218.649 252.423V252.103C218.649 252.002 218.669 251.902 218.711 251.804C218.752 251.706 218.801 251.64 218.86 251.607L219.453 251.264C219.51 251.232 219.56 251.24 219.602 251.29C219.644 251.339 219.665 251.416 219.665 251.517V258.031C219.665 259.151 219.488 260.097 219.137 260.87C218.786 261.643 218.3 262.207 217.679 262.565C217.414 262.719 217.168 262.798 216.941 262.805C216.715 262.81 216.518 262.757 216.352 262.645C216.185 262.533 216.053 262.373 215.953 262.166C215.855 261.959 215.799 261.719 215.789 261.448C215.783 261.35 215.803 261.25 215.848 261.151C215.891 261.051 215.942 260.984 216 260.951L216.531 260.645C216.604 260.603 216.666 260.611 216.718 260.669C216.77 260.726 216.815 260.781 216.851 260.836C216.918 260.954 217.011 261.031 217.128 261.064C217.248 261.099 217.431 261.043 217.68 260.898ZM216.743 256.051C216.727 256.32 216.727 256.579 216.743 256.83C216.774 257.412 216.879 257.786 217.056 257.946C217.232 258.109 217.449 258.115 217.703 257.968C217.958 257.82 218.173 257.562 218.348 257.193C218.523 256.825 218.623 256.382 218.649 255.867C218.659 255.722 218.665 255.544 218.665 255.33C218.665 255.117 218.659 254.945 218.649 254.812C218.623 254.345 218.523 254.024 218.348 253.846C218.173 253.669 217.958 253.654 217.703 253.802C217.448 253.948 217.231 254.207 217.056 254.573C216.879 254.939 216.775 255.433 216.743 256.051Z" fill="#FAFAFA"/>
<path d="M221.977 247.17C222.034 247.136 222.084 247.145 222.125 247.194C222.167 247.244 222.188 247.321 222.188 247.422V248.505C222.188 248.607 222.167 248.707 222.125 248.805C222.084 248.903 222.034 248.969 221.977 249.003L221.306 249.39C221.249 249.422 221.199 249.414 221.157 249.364C221.115 249.314 221.094 249.238 221.094 249.136V248.053C221.094 247.952 221.115 247.851 221.157 247.753C221.198 247.656 221.248 247.589 221.306 247.557L221.977 247.17ZM222.15 256.555C222.15 256.657 222.129 256.758 222.087 256.854C222.046 256.952 221.996 257.019 221.938 257.052L221.346 257.394C221.289 257.427 221.239 257.418 221.197 257.368C221.155 257.32 221.134 257.243 221.134 257.141V250.67C221.134 250.568 221.155 250.467 221.197 250.371C221.238 250.273 221.288 250.206 221.346 250.173L221.938 249.831C221.995 249.798 222.045 249.807 222.087 249.857C222.129 249.905 222.15 249.981 222.15 250.084V256.555Z" fill="#FAFAFA"/>
<path d="M227.429 253.507C227.429 253.608 227.408 253.709 227.368 253.806C227.326 253.904 227.277 253.97 227.219 254.003L226.625 254.346C226.568 254.378 226.519 254.37 226.476 254.32C226.434 254.271 226.414 254.195 226.414 254.093V250.565C226.414 250.01 226.342 249.607 226.195 249.358C226.049 249.109 225.826 249.071 225.523 249.246C225.247 249.405 225.03 249.698 224.871 250.122C224.712 250.547 224.633 251.038 224.633 251.593V255.121C224.633 255.222 224.612 255.323 224.571 255.42C224.529 255.518 224.48 255.585 224.422 255.617L223.829 255.96C223.772 255.992 223.721 255.984 223.68 255.934C223.638 255.885 223.617 255.808 223.617 255.707V249.235C223.617 249.134 223.638 249.033 223.68 248.936C223.721 248.838 223.771 248.772 223.829 248.738L224.422 248.397C224.479 248.363 224.528 248.372 224.571 248.422C224.612 248.471 224.633 248.548 224.633 248.649V248.969C224.769 248.65 224.927 248.36 225.11 248.097C225.292 247.834 225.508 247.631 225.759 247.487C226.076 247.303 226.342 247.237 226.555 247.29C226.769 247.343 226.94 247.48 227.07 247.701C227.201 247.922 227.293 248.215 227.348 248.576C227.402 248.938 227.429 249.337 227.429 249.772V253.507Z" fill="#FAFAFA"/>
<path d="M277.877 224.402L268.163 230.01L269.668 216.386C268.506 215.772 267.766 214.26 267.766 212.09C267.766 208.221 270.118 203.727 273.02 202.051C275.921 200.376 278.273 202.154 278.273 206.023C278.273 208.193 277.533 210.56 276.371 212.516L277.877 224.402Z" fill="#455A64"/>
<path d="M277.878 224.402L269.329 219.467L268.164 230.01L277.878 224.402Z" fill="#37474F"/>
<path d="M273.019 202.051C271.12 203.147 269.462 205.452 268.539 207.997L276.371 212.519V212.517C277.533 210.561 278.273 208.195 278.273 206.024C278.272 202.155 275.92 200.376 273.019 202.051Z" fill="#37474F"/>
<path d="M225.794 156.704C222.472 154.781 217.882 155.054 212.809 157.983C202.67 163.838 194.451 178.075 194.453 189.783C194.454 195.658 196.525 199.777 199.869 201.685C200.739 202.182 205.461 204.929 206.338 205.436C209.66 207.356 214.248 207.082 219.318 204.155C229.456 198.301 237.674 184.064 237.674 172.355C237.674 166.504 235.62 162.395 232.301 160.477" fill="#FFC53D"/>
<path d="M219.317 161.755C209.179 167.612 200.959 181.847 200.961 193.554C200.962 205.262 209.182 210.008 219.32 204.154C229.458 198.3 237.687 184.063 237.676 172.354C237.666 160.648 229.446 155.902 219.317 161.755Z" fill="#FFC53D"/>
<path d="M229.452 187.731V189.067C226.838 193.529 223.26 197.414 219.316 199.685C215.365 201.963 211.795 202.212 209.18 200.758V197.99C209.18 192.645 212.809 186.357 217.439 183.677L220.104 182.143C222.47 180.777 224.763 180.602 226.567 181.646C228.408 182.707 229.452 184.92 229.452 187.731Z" fill="#FFC53D"/>
<path opacity="0.4" d="M225.796 156.704L232.303 160.475C228.979 158.551 224.389 158.823 219.319 161.753C212.68 165.59 206.864 173.02 203.64 180.979L197.133 177.204C200.357 169.245 206.17 161.815 212.812 157.981C217.885 155.055 222.475 154.781 225.796 156.704Z" fill="white"/>
<path opacity="0.2" d="M206.095 205.293C204.949 204.631 200.673 202.141 199.869 201.683C196.525 199.776 194.453 195.657 194.453 189.783L200.96 193.558C200.964 199.264 202.92 203.317 206.095 205.293Z" fill="black"/>
<path opacity="0.1" d="M197.132 177.205L203.639 180.98C201.938 185.176 200.96 189.517 200.96 193.554V193.557L194.453 189.782C194.453 185.742 195.434 181.398 197.132 177.205Z" fill="black"/>
<path d="M217.004 181.521C216.368 181.521 215.775 181.368 215.238 181.061C214.001 180.346 213.32 178.931 213.32 177.078C213.32 173.685 215.622 169.696 218.563 167.999V167.996C220.162 167.069 221.724 166.954 222.97 167.668C224.207 168.383 224.888 169.798 224.888 171.651C224.888 175.044 222.586 179.033 219.648 180.73C218.736 181.255 217.838 181.521 217.004 181.521Z" fill="white"/>
<path d="M226.567 181.648C224.763 180.604 222.47 180.779 220.104 182.145L217.439 183.679C212.809 186.359 209.18 192.646 209.18 197.992V200.76C211.794 202.213 215.365 201.965 219.316 199.687C223.259 197.416 226.837 193.531 229.452 189.069V187.733C229.452 184.92 228.408 182.707 226.567 181.648Z" fill="white"/>
<path d="M432.156 354.648C432.156 354.648 433.484 342.969 439.293 333.905C445.103 324.841 453.085 319.184 460.533 318.595C467.981 318.006 473.997 324.858 466.027 329.564C458.058 334.27 443.899 339.072 437.383 356.672L432.156 354.648Z" fill="#FFC53D"/>
<path opacity="0.1" d="M432.156 354.648C432.156 354.648 433.484 342.969 439.293 333.905C445.103 324.841 453.085 319.184 460.533 318.595C467.981 318.006 473.997 324.858 466.027 329.564C458.058 334.27 443.899 339.072 437.383 356.672L432.156 354.648Z" fill="black"/>
<path d="M434.343 351.615C434.316 351.61 434.29 351.603 434.264 351.592C434.06 351.51 433.962 351.278 434.045 351.074C441.905 331.717 456.868 323.634 463.682 322.065C463.895 322.014 464.109 322.15 464.159 322.363C464.208 322.578 464.075 322.791 463.861 322.84C457.186 324.377 442.519 332.32 434.782 351.373C434.71 351.551 434.524 351.648 434.343 351.615Z" fill="white"/>
<path d="M474.124 351.844C473.45 353.364 471.79 354.156 470.245 354.778C468.709 355.394 467.025 356.068 466.191 357.505C464.51 360.409 467.27 364.491 465.465 367.319C464.707 368.504 463.299 369.129 461.914 369.377C460.763 369.592 459.592 369.591 458.425 369.689C457.864 369.677 457.308 369.637 456.766 369.56C455.165 369.328 453.428 369.253 451.961 370.072C449.653 371.369 448.944 374.283 447.543 376.53C445.862 379.22 442.891 380.982 439.769 381.406C438.732 381.543 436.803 381.73 435.746 381.141C435.663 381.095 435.595 381.052 435.528 381.002C435.521 381.001 435.515 380.992 435.509 380.983C435.364 380.819 435.182 380.611 435.103 380.498C435.083 380.479 435.073 380.455 435.062 380.43C434.653 378.924 435.321 377.357 435.347 375.802C435.35 375.704 435.351 375.613 435.345 375.52C435.281 373.712 435.23 371.914 435.187 370.111C435.103 366.793 435.065 363.468 435.088 360.146C435.111 357.989 434.851 355.627 435.764 353.595C436.775 351.36 439.288 351.311 440.238 349.118C440.619 348.244 440.821 347.307 441.189 346.423C442.288 343.831 444.951 341.968 447.769 341.83C452.156 341.607 456.094 345.159 460.476 344.836C461.611 344.747 462.717 344.402 463.835 344.196C467.389 343.531 471.496 344.542 473.494 347.55C474.331 348.807 474.735 350.464 474.124 351.844Z" fill="#FFC53D"/>
<path d="M434.706 373.519C434.696 373.517 434.686 373.515 434.676 373.512C434.477 373.459 434.358 373.254 434.411 373.054C440.473 350.31 464.437 347.023 470.044 347.428C470.247 347.444 470.405 347.622 470.39 347.828C470.375 348.034 470.196 348.189 469.99 348.174C464.506 347.778 441.066 350.994 435.134 373.247C435.084 373.437 434.896 373.554 434.706 373.519Z" fill="white"/>
<path d="M461.333 361.994C461.26 361.981 461.191 361.946 461.135 361.889C461.075 361.828 454.963 355.803 444.827 357.295C444.623 357.322 444.432 357.184 444.402 356.979C444.372 356.774 444.514 356.584 444.718 356.554C455.246 355.006 461.604 361.298 461.668 361.362C461.813 361.509 461.812 361.746 461.665 361.891C461.574 361.981 461.449 362.015 461.333 361.994Z" fill="white"/>
<path d="M377.116 80.006L380.298 81.23V74.219C380.298 68.661 384.731 67.329 389.544 70.107C394.357 72.886 398.259 79.644 398.259 85.202V86.22C399.351 85.784 400.761 85.953 402.303 86.844C405.767 88.844 408.574 93.707 408.574 97.706V98.169L413.011 100.731C415.292 102.048 417.141 105.251 417.141 107.884C417.141 110.518 415.292 111.585 413.011 110.268L377.114 89.543C374.833 88.226 372.984 85.024 372.984 82.39C372.986 79.756 374.835 78.689 377.116 80.006Z" fill="#E6E6E6"/>
<path d="M419.705 74.464L425.474 77.795C425.445 77.537 425.425 77.282 425.425 77.031V75.36C425.425 72.386 427.513 71.18 430.089 72.667C431.132 73.269 432.092 74.224 432.869 75.34C433.291 71.6 436.225 70.207 439.789 72.265C443.643 74.49 446.767 79.901 446.767 84.35V86.851C446.767 88.004 446.554 88.974 446.176 89.748L450.968 92.515C452.397 93.34 453.555 95.346 453.555 96.996C453.555 98.646 452.397 99.315 450.968 98.49L419.704 80.44C418.275 79.615 417.117 77.609 417.117 75.959C417.118 74.308 418.276 73.639 419.705 74.464Z" fill="#E6E6E6"/>
<path d="M397.365 226.232C393.165 233.333 389.124 239.502 386.287 242.459C380.9 244.965 368.242 248.817 363.289 249.462C362.411 249.576 361.529 249.352 360.803 248.877C358.856 247.601 357.35 247.394 355.297 246.683C353.69 246.127 353.009 245.359 352.707 245.651C352.319 246.026 351.896 247.093 352.875 248.198C353.367 248.753 354.264 249.36 355.419 250.101C355.419 250.101 351.878 251.046 348.715 250.216C344.428 249.091 342.404 251.152 345.303 255.807C346.341 257.474 350.429 260.143 358.713 259.422C361.1 259.215 364.544 259.015 367.515 258.381C375.461 256.685 384.293 255.042 389.723 253.42C391.093 253.011 393.54 251.426 394.997 249.765C404.131 239.353 407.156 231.935 411.16 225.193L410.814 214.176C404.341 213.975 400.879 220.289 397.365 226.232Z" fill="#FFA8A7"/>
<path d="M411.928 213.975C411.928 213.975 406.275 212.773 402.026 218.209C397.58 223.898 389.719 237.561 389.719 237.561C389.719 237.561 392.298 244.412 399.237 245.538L410.385 230.48C410.385 230.48 415.664 220.057 411.928 213.975Z" fill="#455A64"/>
<path d="M436.033 367.536H428.766V380.494H436.033V367.536Z" fill="#FFA8A7"/>
<path d="M410.838 366.845L403.575 367.105L403.211 353.392L410.838 353.132V366.845Z" fill="#FFA8A7"/>
<path d="M437.06 255.347C437.06 262.575 435.996 320.745 435.996 320.745C436.165 322.825 438.037 326.66 437.632 334.648C437.081 345.5 436.347 374.016 436.347 374.016C436.347 374.016 432.819 376.163 428.255 374.182C428.255 374.182 422.363 334.221 421.061 323.468C419.925 314.083 417.014 282.948 417.014 282.948L413.075 319.689C413.075 319.689 414.415 325.286 413.976 331.718C413.636 336.692 411.299 362.597 411.299 362.597C411.299 362.597 407.878 365.015 402.908 363.266C402.908 363.266 398.774 324.253 398.69 319.689C398.594 314.486 401.107 255.27 401.107 255.27L437.06 255.347Z" fill="#37474F"/>
<path d="M428.772 376.758V375.676C428.077 375.991 426.461 382.412 423.577 385.151C421.285 387.329 418.158 389.844 417.362 392.272C416.535 394.797 421.717 396.191 423.858 395.796C426.346 395.337 430.66 393.512 431.742 391.82C432.825 390.128 433.332 387.632 434.211 386.393C435.091 385.153 437.119 383.769 437.595 382.334C437.856 381.546 437.546 379.819 437.179 378.361C436.842 377.023 436.477 375.551 436.038 375.677C436.037 375.84 436.038 376.502 436.038 376.502C435.51 377.111 434.051 377.715 432.405 377.781C431.343 377.822 428.763 377.602 428.772 376.758Z" fill="#263238"/>
<path d="M403.499 364.771C403.121 364.785 402.814 365.339 401.982 366.278C400.976 367.412 399.331 368.635 397.707 369.482C394.986 370.901 389.695 373.083 387.301 374.207C385.805 374.909 385.875 376.791 387.421 377.862C388.967 378.933 392.7 379.705 397.183 378.66C399.625 378.091 402.804 375.742 404.816 375.869C406.828 375.996 410.593 375.966 412.078 374.899C413.563 373.833 412.969 371.556 412.549 369.599C412.091 367.463 411.518 364.133 410.839 364.279V365.015C409.965 366.393 405.456 366.954 403.537 365.939L403.499 364.771Z" fill="#263238"/>
<path d="M417.018 282.947C417.018 282.947 411.209 281.243 406.898 276.903C406.898 276.903 408.851 280.711 414.658 284.255L413.416 317.066L417.018 282.947Z" fill="#263238"/>
<path d="M432.986 215.059C432.986 215.059 438.961 216.442 438.557 227.276L437.299 244.534L437.335 270.433C431.991 276.488 408.299 276.045 400.188 269.948C400.188 269.948 401.107 239.298 401.655 227.504C402.044 219.119 403.974 214.898 412.214 213.974L422.348 214.42L432.986 215.059Z" fill="#FFC53D"/>
<path d="M425.357 192.535C425.357 198.759 420.513 203.804 414.538 203.804C408.563 203.804 405.026 198.62 403.719 192.535C401.327 181.406 408.563 181.266 414.538 181.266C420.513 181.266 425.357 186.311 425.357 192.535Z" fill="#263238"/>
<path d="M430.874 197.094C430.874 197.094 429.215 205.214 428.549 206.548C427.884 207.882 426.508 208.261 426.508 208.261L426.624 202.549L430.874 197.094Z" fill="#263238"/>
<path d="M428.793 185.461C428.793 185.461 429.983 185.163 431.247 187.138C432.331 188.831 432.577 192.634 430.876 197.094L427.75 197.468L428.793 185.461Z" fill="#263238"/>
<path d="M429.945 187.105L433.778 187.176C433.872 186.076 433.09 185.169 432.031 185.149C430.973 185.13 430.039 186.005 429.945 187.105Z" fill="#263238"/>
<path d="M430.414 186.197L433.254 183.466C432.553 182.654 431.349 182.607 430.565 183.361C429.781 184.114 429.713 185.384 430.414 186.197Z" fill="#263238"/>
<path d="M426.816 197.47C427.443 197.86 428.337 196.606 429.11 195.763C429.883 194.921 432.31 194.125 433.569 196.888C434.852 199.703 432.683 202.38 430.879 203.277C427.654 204.88 426.629 202.549 426.629 202.549L426.368 215.411C421.823 222.441 411.528 222.188 415.229 215.071L415.239 211.156C415.239 211.156 412.137 211.646 410.624 211.403C408.106 210.998 406.522 208.929 405.758 206.09C404.531 201.531 404.065 197.849 405.106 188.883C406.247 179.055 417.222 178.953 423.148 182.838C429.076 186.724 426.816 197.47 426.816 197.47Z" fill="#FFA8A7"/>
<path d="M413.131 187.349C415.753 187.087 418.345 186.554 420.972 186.36C421.541 186.318 422.122 186.293 422.673 186.442C424.686 186.986 424.426 189.326 424.746 190.961C425.296 193.776 425.753 198.548 426.812 198.569C427.127 198.575 428.326 196.504 429.106 195.764C429.611 195.285 429.697 194.252 429.806 193.613C430.006 192.446 430.114 191.263 430.203 190.084C430.279 189.086 430.379 188.07 430.375 187.068C430.37 185.944 430.392 184.8 430.113 183.702C429.859 182.705 429.393 181.959 428.711 181.182C428.645 181.107 428.578 181.033 428.511 180.96C427.218 179.566 425.569 178.521 423.818 177.799C421.305 176.763 418.582 176.35 415.878 176.073C413.174 175.796 410.449 175.646 407.786 175.098C407.631 175.066 407.465 175.034 407.317 175.09C407.085 175.179 406.984 175.448 406.937 175.691C406.702 176.925 407.257 178.275 408.294 178.986C406.482 179.13 404.402 178.186 402.656 177.713C402.362 177.633 402.028 177.558 401.767 177.716C401.587 177.825 401.481 178.025 401.417 178.225C401.269 178.689 401.302 179.19 401.368 179.673C401.563 181.1 402.049 182.51 402.929 183.65C404.195 185.291 406.279 186.771 408.334 187.183C409.957 187.51 411.472 187.514 413.131 187.349Z" fill="#263238"/>
<path d="M415.234 211.157C415.234 211.157 420.854 209.978 422.819 208.89C424.134 208.162 425.217 206.9 425.535 206.091C425.535 206.091 425.167 207.828 423.992 209.392C422.555 211.305 415.234 212.714 415.234 212.714V211.157Z" fill="#F28F8F"/>
<path d="M416.586 196.007C416.586 196.68 417.091 197.224 417.712 197.223C418.334 197.221 418.838 196.674 418.838 196.001C418.838 195.328 418.334 194.784 417.712 194.785C417.091 194.787 416.586 195.334 416.586 196.007Z" fill="#263238"/>
<path d="M418.391 191.15L420.801 192.535C421.156 191.814 420.905 190.919 420.239 190.537C419.573 190.155 418.746 190.429 418.391 191.15Z" fill="#263238"/>
<path d="M415.743 204.11L413.172 205.115C413.426 205.883 414.208 206.28 414.918 206.002C415.629 205.725 415.998 204.878 415.743 204.11Z" fill="#F28F8F"/>
<path d="M406.251 192.182L408.448 190.42C408 189.765 407.145 189.628 406.538 190.115C405.932 190.601 405.803 191.527 406.251 192.182Z" fill="#263238"/>
<path d="M407.219 195.673C407.219 196.346 407.723 196.89 408.345 196.888C408.967 196.886 409.471 196.339 409.471 195.666C409.471 194.993 408.967 194.449 408.345 194.45C407.723 194.453 407.219 195 407.219 195.673Z" fill="#263238"/>
<path d="M413.246 194.731L413.115 201.845L409.078 200.919L413.246 194.731Z" fill="#F28F8F"/>
<path d="M317.312 254.276L323.577 250.66L326.06 247.653L319.796 251.27L317.312 254.276Z" fill="#FFC53D"/>
<path opacity="0.4" d="M317.312 254.276L323.577 250.66L326.06 247.653L319.796 251.27L317.312 254.276Z" fill="black"/>
<path d="M334.359 264.118L340.623 260.502L345.859 255.868L339.594 259.484L334.359 264.118Z" fill="#FFC53D"/>
<path opacity="0.4" d="M334.359 264.118L340.623 260.502L345.859 255.868L339.594 259.484L334.359 264.118Z" fill="black"/>
<path d="M387.622 276.615C388.995 278.362 389.997 280.929 390.212 283.432C388.838 281.685 387.837 279.118 387.622 276.615ZM402.185 276.804C400.078 262.452 392.367 248.255 383.176 242.95C378.766 240.4 374.684 240.308 371.415 242.22C370.459 242.775 366.912 244.821 365.514 245.623C365.401 245.685 365.288 245.746 365.185 245.818C364.928 245.962 364.671 246.126 364.424 246.301C363.951 246.63 363.499 247 363.067 247.422C363.005 247.473 362.943 247.545 362.872 247.607C362.687 247.792 362.502 247.998 362.327 248.203C362.111 248.45 361.895 248.707 361.7 248.974C361.289 249.519 360.898 250.105 360.549 250.742C360.374 251.05 360.199 251.379 360.035 251.719L308.519 221.978L302.258 225.586V229.575L302.792 229.883L303.286 230.171V231.014L302.258 231.61V233.933L309.824 249.95L317.308 254.278L319.796 251.266L326.396 255.214L330.189 261.711L334.363 264.117L339.596 259.481L346.021 263.192L348.18 272.095L358.944 278.305C359.489 280.587 360.178 282.818 360.98 284.998C361.052 285.224 361.134 285.45 361.227 285.697C364.805 295.104 370.5 303.153 376.915 306.864C377.738 307.337 378.539 307.728 379.331 308.026C379.784 308.211 380.236 308.355 380.678 308.478C381.079 308.591 381.48 308.684 381.881 308.745C383.207 308.981 384.492 308.971 385.695 308.735C385.87 308.694 386.045 308.653 386.219 308.612C386.466 308.561 386.712 308.489 386.949 308.396C387.134 308.324 387.319 308.252 387.504 308.18C387.699 308.108 387.895 308.015 388.08 307.913C388.265 307.831 388.44 307.738 388.615 307.635C388.707 307.584 388.8 307.532 388.882 307.481C388.923 307.471 388.964 307.44 389.006 307.409C390.435 306.587 393.961 304.551 394.917 304.006C399.677 301.251 402.761 294.27 402.761 284.401C402.76 281.893 402.565 279.344 402.185 276.804Z" fill="#FFC53D"/>
<path d="M385.784 288.721C383.313 287.294 381.309 283.053 381.309 279.248C381.309 275.443 383.313 273.515 385.784 274.942C388.255 276.369 390.259 280.61 390.259 284.415C390.258 288.22 388.255 290.148 385.784 288.721ZM395.923 280.413C393.816 266.072 386.105 251.874 376.914 246.57C372.658 244.113 368.721 243.928 365.513 245.624C365.4 245.686 365.287 245.747 365.184 245.819C364.927 245.963 364.67 246.127 364.423 246.302C363.95 246.631 363.498 247.001 363.066 247.423C363.004 247.474 362.942 247.546 362.871 247.608C362.686 247.793 362.501 247.999 362.326 248.204C362.11 248.451 361.894 248.708 361.699 248.975C361.288 249.52 360.897 250.106 360.548 250.743C360.373 251.051 360.198 251.38 360.034 251.72C359.181 253.468 358.502 255.503 358.05 257.806L302.258 225.587V229.576L302.792 229.884L303.286 230.172V231.015L302.258 231.611V233.934L309.824 249.951L317.308 254.279L319.796 251.267L326.396 255.215L330.189 261.712L334.363 264.118L339.596 259.482L346.021 263.193L348.18 272.096L358.944 278.306C359.489 280.588 360.178 282.819 360.98 284.999C361.052 285.225 361.134 285.451 361.227 285.698C364.805 295.105 370.5 303.154 376.915 306.865C377.738 307.338 378.539 307.729 379.331 308.027C379.784 308.212 380.236 308.356 380.678 308.479C381.079 308.592 381.48 308.685 381.881 308.746C383.207 308.982 384.492 308.972 385.695 308.736C385.87 308.695 386.045 308.654 386.219 308.613C386.466 308.562 386.712 308.49 386.949 308.397C387.134 308.325 387.319 308.253 387.504 308.181C387.699 308.109 387.895 308.016 388.08 307.914C388.265 307.832 388.44 307.739 388.615 307.636C388.707 307.585 388.8 307.533 388.882 307.482C388.923 307.472 388.964 307.441 389.006 307.41C393.57 304.532 396.501 297.654 396.501 288.021C396.499 285.512 396.293 282.962 395.923 280.413Z" fill="#FFC53D"/>
<path opacity="0.4" d="M390.259 284.412C390.259 288.216 388.254 290.149 385.787 288.72C383.309 287.291 381.305 283.055 381.305 279.252C381.305 275.449 383.31 273.516 385.787 274.945C386.445 275.325 387.072 275.901 387.617 276.621C387.833 279.119 388.84 281.689 390.208 283.437C390.249 283.764 390.259 284.093 390.259 284.412Z" fill="black"/>
<path opacity="0.4" d="M402.762 284.402C402.762 294.271 399.678 301.252 394.918 304.007C393.962 304.552 390.436 306.587 389.007 307.41C393.571 304.532 396.502 297.654 396.502 288.021C396.502 285.513 396.296 282.963 395.926 280.414C393.819 266.073 386.108 251.875 376.917 246.571C372.661 244.114 368.724 243.929 365.516 245.625C366.914 244.823 370.461 242.777 371.417 242.222C374.686 240.31 378.768 240.402 383.178 242.952C392.369 248.257 400.079 262.454 402.187 276.806C402.567 279.344 402.762 281.893 402.762 284.402Z" fill="white"/>
<path d="M396.503 288.02C396.503 297.653 393.573 304.531 389.008 307.409C390.437 306.587 393.963 304.551 394.919 304.006C399.679 301.251 402.763 294.27 402.763 284.401C402.763 284.037 402.75 283.67 402.742 283.304C400.591 284.546 398.416 285.801 396.48 286.919C396.489 287.287 396.503 287.655 396.503 288.02Z" fill="#FFC53D"/>
<path opacity="0.1" d="M396.503 288.02C396.503 297.653 393.573 304.531 389.008 307.409C390.437 306.587 393.963 304.551 394.919 304.006C399.679 301.251 402.763 294.27 402.763 284.401C402.763 284.037 402.75 283.67 402.742 283.304C400.591 284.546 398.416 285.801 396.48 286.919C396.489 287.287 396.503 287.655 396.503 288.02Z" fill="black"/>
<path opacity="0.15" d="M358.276 261.918V263.954L302.258 231.611L303.286 231.015V230.172L358.276 261.918Z" fill="black"/>
<path opacity="0.15" d="M358.276 262.761V263.954L302.258 231.611L303.286 231.015V231.005L358.276 262.761Z" fill="black"/>
<path opacity="0.15" d="M385.03 303.189C392.84 300.792 395.535 287.002 391.05 272.389C386.565 257.775 376.598 247.872 368.789 250.268C360.979 252.665 358.284 266.455 362.769 281.068C367.254 295.682 377.221 305.586 385.03 303.189Z" stroke="black" stroke-miterlimit="10"/>
<path opacity="0.4" d="M360.034 251.72C359.181 253.468 358.502 255.503 358.05 257.806L302.258 225.587L308.519 221.979L360.034 251.72Z" fill="white"/>
<path d="M432.508 254.853C435.434 249.32 438.769 236.9 440.43 230.632C442.789 221.729 438.971 216.127 434.637 215.902C431.919 216.316 422.995 248.791 422.995 248.791C422.006 249.582 408.423 256.465 404.059 258.195C403.286 258.502 402.425 258.489 401.643 258.204C399.547 257.439 398.12 257.584 396.069 257.378C394.463 257.217 393.65 256.646 393.447 256.99C393.187 257.432 393.066 258.535 394.235 259.357C394.823 259.771 395.794 260.14 397.033 260.579C397.033 260.579 394.713 261.383 391.618 261.315C387.423 261.222 385.913 263.045 389.167 267.297C391.206 269.961 394.484 270.801 401.867 268.248C403.994 267.512 406.876 266.082 409.558 265.108C415.104 263.093 416.528 262.875 420.785 261.442C426.928 259.373 431.209 257.308 432.508 254.853Z" fill="#FFA8A7"/>
<path d="M432.994 215.059C435.546 215.408 438.02 215.985 439.504 218.047C440.988 220.109 442.225 223.017 440.741 231.005C439.257 238.993 436.204 247.479 436.204 247.479C436.204 247.479 430.268 250.016 423.953 243.58L428.289 226.801C428.289 226.801 429.031 215.901 432.994 215.059Z" fill="#455A64"/>
</svg>
