<svg width="16" height="16" viewBox="0 0 16 16" fill="none" xmlns="http://www.w3.org/2000/svg">
<rect width="16" height="16" fill="white" fill-opacity="0.01"/>
<path fill-rule="evenodd" clip-rule="evenodd" d="M3.86875 8C3.86875 8.66274 3.33149 9.2 2.66875 9.2C2.00601 9.2 1.46875 8.66274 1.46875 8C1.46875 7.33726 2.00601 6.8 2.66875 6.8C3.33149 6.8 3.86875 7.33726 3.86875 8ZM9.20208 8C9.20208 8.66274 8.66482 9.2 8.00208 9.2C7.33934 9.2 6.80208 8.66274 6.80208 8C6.80208 7.33726 7.33934 6.8 8.00208 6.8C8.66482 6.8 9.20208 7.33726 9.20208 8ZM13.3354 9.2C13.9981 9.2 14.5354 8.66274 14.5354 8C14.5354 7.33726 13.9981 6.8 13.3354 6.8C12.6727 6.8 12.1354 7.33726 12.1354 8C12.1354 8.66274 12.6727 9.2 13.3354 9.2Z" fill="#646464"/>
</svg>
