<svg width="16" height="16" viewBox="0 0 16 16" fill="none" xmlns="http://www.w3.org/2000/svg">
<g id="Music / graphic_eq">
<path id="Vector" d="M5.15104 11.2718V4.72822C5.15104 4.60544 5.19225 4.50252 5.27467 4.41947C5.3571 4.33642 5.45923 4.2949 5.58107 4.2949C5.70292 4.2949 5.80615 4.33642 5.89076 4.41947C5.97538 4.50252 6.01769 4.60544 6.01769 4.72822V11.2718C6.01769 11.3946 5.97647 11.4975 5.89404 11.5805C5.81162 11.6636 5.70949 11.7051 5.58764 11.7051C5.4658 11.7051 5.36257 11.6636 5.27796 11.5805C5.19335 11.4975 5.15104 11.3946 5.15104 11.2718ZM7.56771 13.6333V2.36668C7.56771 2.24391 7.60892 2.14099 7.69134 2.05793C7.77376 1.97488 7.8759 1.93335 7.99774 1.93335C8.11959 1.93335 8.22281 1.97488 8.30742 2.05793C8.39204 2.14099 8.43434 2.24391 8.43434 2.36668V13.6333C8.43434 13.7561 8.39313 13.859 8.31071 13.9421C8.22829 14.0251 8.12615 14.0667 8.00431 14.0667C7.88246 14.0667 7.77924 14.0251 7.69462 13.9421C7.61001 13.859 7.56771 13.7561 7.56771 13.6333ZM2.73438 8.9359V7.0641C2.73438 6.94133 2.77559 6.83842 2.85802 6.75537C2.94045 6.67231 3.04258 6.63078 3.16442 6.63078C3.28627 6.63078 3.3895 6.67231 3.47411 6.75537C3.55872 6.83842 3.60102 6.94133 3.60102 7.0641V8.9359C3.60102 9.05867 3.55981 9.16158 3.47739 9.24463C3.39497 9.32769 3.29284 9.36922 3.17099 9.36922C3.04915 9.36922 2.94592 9.32769 2.86131 9.24463C2.77669 9.16158 2.73438 9.05867 2.73438 8.9359ZM9.98436 11.2718V4.72822C9.98436 4.60544 10.0256 4.50252 10.108 4.41947C10.1904 4.33642 10.2926 4.2949 10.4144 4.2949C10.5363 4.2949 10.6395 4.33642 10.7241 4.41947C10.8087 4.50252 10.851 4.60544 10.851 4.72822V11.2718C10.851 11.3946 10.8098 11.4975 10.7274 11.5805C10.645 11.6636 10.5428 11.7051 10.421 11.7051C10.2991 11.7051 10.1959 11.6636 10.1113 11.5805C10.0267 11.4975 9.98436 11.3946 9.98436 11.2718ZM12.401 8.9359V7.0641C12.401 6.94133 12.4422 6.83842 12.5247 6.75537C12.6071 6.67231 12.7092 6.63078 12.8311 6.63078C12.9529 6.63078 13.0561 6.67231 13.1407 6.75537C13.2254 6.83842 13.2677 6.94133 13.2677 7.0641V8.9359C13.2677 9.05867 13.2265 9.16158 13.144 9.24463C13.0616 9.32769 12.9595 9.36922 12.8376 9.36922C12.7158 9.36922 12.6126 9.32769 12.5279 9.24463C12.4433 9.16158 12.401 9.05867 12.401 8.9359Z" fill="#838383"/>
</g>
</svg>
