<svg width="16" height="16" viewBox="0 0 16 16" fill="none" xmlns="http://www.w3.org/2000/svg">
<path d="M3.00363 9.23284C2.88085 9.23284 2.77794 9.19163 2.6949 9.10921C2.61184 9.02679 2.57031 8.92466 2.57031 8.80281C2.57031 8.68097 2.61184 8.57774 2.6949 8.49313C2.77794 8.40852 2.88085 8.36621 3.00363 8.36621H6.93698C7.05976 8.36621 7.16267 8.40742 7.24573 8.48984C7.32878 8.57227 7.37031 8.6744 7.37031 8.79625C7.37031 8.91809 7.32878 9.02132 7.24573 9.10593C7.16267 9.19054 7.05976 9.23284 6.93698 9.23284H3.00363ZM3.00363 6.73285C2.88085 6.73285 2.77794 6.69163 2.6949 6.60921C2.61184 6.52679 2.57031 6.42466 2.57031 6.30281C2.57031 6.18097 2.61184 6.07774 2.6949 5.99313C2.77794 5.90852 2.88085 5.86621 3.00363 5.86621H9.33698C9.45976 5.86621 9.56267 5.90742 9.64573 5.98984C9.72879 6.07227 9.77031 6.1744 9.77031 6.29624C9.77031 6.41809 9.72879 6.52132 9.64573 6.60593C9.56267 6.69054 9.45976 6.73285 9.33698 6.73285H3.00363ZM3.00363 4.23285C2.88085 4.23285 2.77794 4.19163 2.6949 4.10921C2.61184 4.02679 2.57031 3.92466 2.57031 3.80281C2.57031 3.68097 2.61184 3.57774 2.6949 3.49313C2.77794 3.40852 2.88085 3.36621 3.00363 3.36621H9.33698C9.45976 3.36621 9.56267 3.40742 9.64573 3.48984C9.72879 3.57227 9.77031 3.6744 9.77031 3.79624C9.77031 3.91809 9.72879 4.02132 9.64573 4.10593C9.56267 4.19054 9.45976 4.23285 9.33698 4.23285H3.00363ZM11.2069 11.8328C11.0851 11.8328 10.9818 11.7913 10.8972 11.7083C10.8126 11.6252 10.7703 11.5223 10.7703 11.3995V9.23284H8.60363C8.48085 9.23284 8.37794 9.19163 8.2949 9.10921C8.21184 9.02679 8.17031 8.92466 8.17031 8.80281C8.17031 8.68097 8.21184 8.57774 8.2949 8.49313C8.37794 8.40852 8.48085 8.36621 8.60363 8.36621H10.7703V6.19953C10.7703 6.07675 10.8115 5.97384 10.8939 5.89079C10.9764 5.80774 11.0785 5.76621 11.2003 5.76621C11.3222 5.76621 11.4254 5.80774 11.51 5.89079C11.5946 5.97384 11.6369 6.07675 11.6369 6.19953V8.36621H13.8036C13.9264 8.36621 14.0293 8.40742 14.1124 8.48984C14.1954 8.57227 14.2369 8.6744 14.2369 8.79625C14.2369 8.91809 14.1954 9.02132 14.1124 9.10593C14.0293 9.19054 13.9264 9.23284 13.8036 9.23284H11.6369V11.3995C11.6369 11.5223 11.5957 11.6252 11.5133 11.7083C11.4309 11.7913 11.3288 11.8328 11.2069 11.8328Z" fill="#915930"/>
</svg>
