<svg xmlns="http://www.w3.org/2000/svg" width="16" height="16" viewBox="0 0 16 16" fill="none">
  <rect width="16" height="16" fill="white" fill-opacity="0.01"/>
  <path fill-rule="evenodd" clip-rule="evenodd" d="M8.00186 0.935349C4.10032 0.935349 0.9375 4.09817 0.9375 7.9997C0.9375 11.9012 4.10032 15.0641 8.00186 15.0641C11.9034 15.0641 15.0662 11.9012 15.0662 7.9997C15.0662 4.09817 11.9034 0.935349 8.00186 0.935349ZM1.95083 7.9997C1.95083 4.65782 4.65997 1.94868 8.00186 1.94868C11.3437 1.94868 14.0528 4.65782 14.0528 7.9997C14.0528 11.3415 11.3437 14.0508 8.00186 14.0508C4.65997 14.0508 1.95083 11.3415 1.95083 7.9997ZM8.00198 4.26666C8.29653 4.26666 8.53532 4.50545 8.53532 4.8V7.46666H11.202C11.4966 7.46666 11.7353 7.70545 11.7353 8C11.7353 8.29455 11.4966 8.53333 11.202 8.53333H8.53532V11.2C8.53532 11.4945 8.29653 11.7333 8.00198 11.7333C7.70744 11.7333 7.46865 11.4945 7.46865 11.2V8.53333H4.80199C4.50744 8.53333 4.26865 8.29455 4.26865 8C4.26865 7.70545 4.50744 7.46666 4.80199 7.46666H7.46865V4.8C7.46865 4.50545 7.70744 4.26666 8.00198 4.26666Z" fill="#202020"/>
</svg>