<svg width="16" height="16" viewBox="0 0 16 16" fill="none" xmlns="http://www.w3.org/2000/svg">
<rect width="16" height="16" fill="white" fill-opacity="0.01"/>
<path fill-rule="evenodd" clip-rule="evenodd" d="M12.5637 4.30044C12.8032 4.06092 12.8032 3.67258 12.5637 3.43306C12.3242 3.19354 11.9358 3.19354 11.6963 3.43306L7.99667 7.13271L4.29703 3.43306C4.0575 3.19354 3.66916 3.19354 3.42964 3.43306C3.19012 3.67258 3.19012 4.06092 3.42964 4.30044L7.12929 8.00009L3.42964 11.6997C3.19012 11.9393 3.19012 12.3276 3.42964 12.5671C3.66916 12.8066 4.0575 12.8066 4.29703 12.5671L7.99667 8.86747L11.6963 12.5671C11.9358 12.8066 12.3242 12.8066 12.5637 12.5671C12.8032 12.3276 12.8032 11.9393 12.5637 11.6997L8.86405 8.00009L12.5637 4.30044Z" fill="#D93D42"/>
</svg>
